<svg width="68" height="68" viewBox="0 0 68 68" fill="none" xmlns="http://www.w3.org/2000/svg">
<path d="M60.7143 0H7.28571C3.26339 0 0 3.26339 0 7.28571V60.7143C0 64.7366 3.26339 68 7.28571 68H60.7143C64.7366 68 68 64.7366 68 60.7143V7.28571C68 3.26339 64.7366 0 60.7143 0ZM37.0054 53.0339C37.0054 59.6518 33.1196 62.6723 27.458 62.6723C22.3429 62.6723 19.383 60.0312 17.8652 56.8286L23.0714 53.6866C24.0732 55.4625 24.9839 56.9652 27.1848 56.9652C29.2795 56.9652 30.6152 56.1455 30.6152 52.9429V31.2223H37.0054V53.0339ZM52.1232 62.6723C46.1884 62.6723 42.3482 59.8491 40.4813 56.1455L45.6875 53.1402C47.0536 55.3714 48.8446 57.0259 51.9866 57.0259C54.6277 57.0259 56.3277 55.7054 56.3277 53.8688C56.3277 51.683 54.5973 50.9089 51.6679 49.6188L50.0741 48.9357C45.4598 46.9777 42.4089 44.5036 42.4089 39.2973C42.4089 34.5009 46.067 30.858 51.7589 30.858C55.8268 30.858 58.7411 32.2696 60.8357 35.9732L55.8571 39.1607C54.7643 37.2027 53.5804 36.4286 51.7438 36.4286C49.8768 36.4286 48.6929 37.6125 48.6929 39.1607C48.6929 41.0732 49.8768 41.8473 52.6241 43.0464L54.2179 43.7295C59.6518 46.0518 62.7027 48.4348 62.7027 53.7777C62.7027 59.5152 58.1795 62.6723 52.1232 62.6723Z" fill="#642373"/>
</svg>
