<svg width="25" height="25" viewBox="0 0 25 25" fill="none" xmlns="http://www.w3.org/2000/svg">
<path d="M20.3125 21.8755H16.2109C15.8887 21.8755 15.625 21.6118 15.625 21.2896V19.3364C15.625 19.0142 15.8887 18.7505 16.2109 18.7505H20.3125C21.1768 18.7505 21.875 18.0522 21.875 17.188V7.81299C21.875 6.94873 21.1768 6.25049 20.3125 6.25049H16.2109C15.8887 6.25049 15.625 5.98682 15.625 5.66455V3.71143C15.625 3.38916 15.8887 3.12549 16.2109 3.12549H20.3125C22.9004 3.12549 25 5.2251 25 7.81299V17.188C25 19.7759 22.9004 21.8755 20.3125 21.8755ZM18.0176 12.061L9.81445 3.85791C9.08203 3.12549 7.8125 3.63818 7.8125 4.68799V9.37549H1.17188C0.522461 9.37549 0 9.89795 0 10.5474V15.2349C0 15.8843 0.522461 16.4067 1.17188 16.4067H7.8125V21.0942C7.8125 22.144 9.08203 22.6567 9.81445 21.9243L18.0176 13.7212C18.4717 13.2622 18.4717 12.52 18.0176 12.061Z" fill="white"/>
</svg>
